<?xml version="1.0" encoding="iso-8859-1"?>
<!-- Generator: Adobe Illustrator 19.0.0, SVG Export Plug-In . SVG Version: 6.00 Build 0)  -->
<svg version="1.1" id="Layer_1" xmlns="http://www.w3.org/2000/svg" xmlns:xlink="http://www.w3.org/1999/xlink" x="0px" y="0px"
	 viewBox="0 0 512 512" style="enable-background:new 0 0 512 512;" xml:space="preserve">
<path style="fill:#FF9900;" d="M312.889,259.413h-112.64c-9.425,0-17.067-7.641-17.067-17.067v-56.32
	c0-40.465,32.922-73.387,73.387-73.387s73.387,32.922,73.387,73.387v56.32C329.956,251.772,322.314,259.413,312.889,259.413z"/>
<path style="fill:#FFDB2D;" d="M256.569,146.773c-40.465,0-73.387-32.922-73.387-73.387S216.104,0,256.569,0
	s73.387,32.922,73.387,73.387S297.034,146.773,256.569,146.773z"/>
<path style="fill:#FF4F19;" d="M256.569,112.64c-0.191,0-0.379,0.013-0.569,0.015v146.759h56.889
	c9.425,0,17.067-7.641,17.067-17.067v-56.32C329.956,145.562,297.034,112.64,256.569,112.64z"/>
<path style="fill:#FF9900;" d="M467.627,512h-112.64c-9.425,0-17.067-7.641-17.067-17.067v-56.32
	c0-40.465,32.922-73.387,73.387-73.387s73.387,32.922,73.387,73.387v56.32C484.693,504.359,477.052,512,467.627,512z"/>
<path style="fill:#FF4F19;" d="M411.307,365.227c-0.191,0-0.379,0.012-0.569,0.015V512h56.889c9.425,0,17.067-7.641,17.067-17.067
	v-56.32C484.693,398.148,451.772,365.227,411.307,365.227z"/>
<path style="fill:#FFDB2D;" d="M411.307,399.36c-40.465,0-73.387-32.922-73.387-73.387s32.922-73.387,73.387-73.387
	s73.387,32.922,73.387,73.387S451.772,399.36,411.307,399.36z"/>
<path style="fill:#A7A9AC;" d="M318.618,395.938l-45.551-45.551v-64.804c0-9.425-7.641-17.067-17.067-17.067
	c-9.425,0-17.067,7.641-17.067,17.067v64.804l-45.551,45.551c-6.665,6.665-6.665,17.471,0,24.136c6.664,6.665,17.471,6.665,24.136,0
	L256,381.591l38.482,38.482c6.664,6.664,17.471,6.665,24.136,0S325.283,402.603,318.618,395.938z"/>
<g>
	<path style="fill:#FF9900;" d="M256.569,0c-0.191,0-0.379,0.013-0.569,0.015V146.76c0.19,0.001,0.378,0.015,0.569,0.015
		c40.465,0,73.387-32.922,73.387-73.387S297.034,0,256.569,0z"/>
	<path style="fill:#FF9900;" d="M411.307,252.587c-0.191,0-0.379,0.013-0.569,0.015v146.745c0.19,0.001,0.378,0.015,0.569,0.015
		c40.465,0,73.387-32.922,73.387-73.387S451.772,252.587,411.307,252.587z"/>
</g>
<path style="fill:#808285;" d="M318.618,395.938l-45.551-45.551v-64.804c0-9.425-7.641-17.067-17.067-17.067v113.076l38.482,38.482
	c6.664,6.664,17.471,6.665,24.136,0S325.283,402.603,318.618,395.938z"/>
<path style="fill:#FF9900;" d="M157.013,512H44.373c-9.425,0-17.067-7.641-17.067-17.067v-56.32
	c0-40.465,32.922-73.387,73.387-73.387s73.387,32.922,73.387,73.387v56.32C174.08,504.359,166.439,512,157.013,512z"/>
<path style="fill:#FF4F19;" d="M100.693,365.227c-0.191,0-0.379,0.012-0.569,0.015V512h56.889c9.425,0,17.067-7.641,17.067-17.067
	v-56.32C174.08,398.148,141.158,365.227,100.693,365.227z"/>
<path style="fill:#FFDB2D;" d="M100.693,399.36c-40.465,0-73.387-32.922-73.387-73.387s32.922-73.387,73.387-73.387
	s73.387,32.922,73.387,73.387S141.158,399.36,100.693,399.36z"/>
<path style="fill:#FF9900;" d="M100.693,252.587c-0.191,0-0.379,0.013-0.569,0.015v146.745c0.19,0.001,0.378,0.015,0.569,0.015
	c40.465,0,73.387-32.922,73.387-73.387S141.158,252.587,100.693,252.587z"/>
<g>
</g>
<g>
</g>
<g>
</g>
<g>
</g>
<g>
</g>
<g>
</g>
<g>
</g>
<g>
</g>
<g>
</g>
<g>
</g>
<g>
</g>
<g>
</g>
<g>
</g>
<g>
</g>
<g>
</g>
</svg>
