<?xml version="1.0" encoding="iso-8859-1"?>
<!-- Generator: Adobe Illustrator 19.0.0, SVG Export Plug-In . SVG Version: 6.00 Build 0)  -->
<svg version="1.1" id="Layer_1" xmlns="http://www.w3.org/2000/svg" xmlns:xlink="http://www.w3.org/1999/xlink" x="0px" y="0px"
	 viewBox="0 0 492.248 492.248" style="enable-background:new 0 0 492.248 492.248;" xml:space="preserve">
<rect x="38.124" y="80" style="fill:#F9BA48;" width="416" height="240"/>
<g>
	<path style="fill:#333333;" d="M268.652,32c0.896-2.512,1.472-5.184,1.472-8c0-13.232-10.768-24-24-24c-13.232,0-24,10.768-24,24
		c0,2.816,0.576,5.488,1.472,8H14.124v48h464V32H268.652z M238.124,24c0-4.416,3.584-8,8-8c4.416,0,8,3.584,8,8s-3.584,8-8,8
		S238.124,28.416,238.124,24z M462.124,64h-432V48h432V64z"/>
	<path style="fill:#333333;" d="M14.124,368h161.568L103.34,483.76l13.56,8.488L194.556,368h43.568v120h16V368h43.568l77.648,124.24
		l13.56-8.488L316.556,368h161.568v-48h-464V368z M30.124,336h432v16h-432V336z"/>
	<path style="fill:#333333;" d="M78.124,280v24h48v-24c0-8.352-4.296-15.696-10.784-20c6.488-4.304,10.784-11.648,10.784-20
		c0-10.416-6.712-19.216-16-22.528V208h80v9.472c-9.288,3.312-16,12.112-16,22.528c0,8.352,4.296,15.696,10.784,20
		c-6.488,4.304-10.784,11.648-10.784,20v24h48v-24c0-8.352-4.296-15.696-10.784-20c6.488-4.304,10.784-11.648,10.784-20
		c0-10.416-6.712-19.216-16-22.528V208h80v9.472c-9.288,3.312-16,12.112-16,22.528c0,8.352,4.296,15.696,10.784,20
		c-6.488,4.304-10.784,11.648-10.784,20v24h48v-24c0-8.352-4.296-15.696-10.784-20c6.488-4.304,10.784-11.648,10.784-20
		c0-10.416-6.712-19.216-16-22.528V208h80v9.472c-9.288,3.312-16,12.112-16,22.528c0,8.352,4.296,15.696,10.784,20
		c-6.488,4.304-10.784,11.648-10.784,20v24h48v-24c0-8.352-4.296-15.696-10.784-20c6.488-4.304,10.784-11.648,10.784-20
		c0-10.416-6.712-19.216-16-22.528V192h-144v-16h16v-24c0-8.352-4.296-15.696-10.784-20c6.488-4.304,10.784-11.648,10.784-20
		c0-13.232-10.768-24-24-24c-13.232,0-24,10.768-24,24c0,8.352,4.296,15.696,10.784,20c-6.488,4.304-10.784,11.648-10.784,20v24h16
		v16h-144v25.472c-9.288,3.312-16,12.112-16,22.528c0,8.352,4.296,15.696,10.784,20C82.42,264.304,78.124,271.648,78.124,280z
		 M198.124,232c4.416,0,8,3.584,8,8s-3.584,8-8,8s-8-3.584-8-8S193.708,232,198.124,232z M206.124,288h-16v-8c0-4.416,3.584-8,8-8
		s8,3.584,8,8V288z M294.124,232c4.416,0,8,3.584,8,8s-3.584,8-8,8c-4.416,0-8-3.584-8-8S289.708,232,294.124,232z M302.124,288h-16
		v-8c0-4.416,3.584-8,8-8c4.416,0,8,3.584,8,8V288z M390.124,232c4.416,0,8,3.584,8,8s-3.584,8-8,8c-4.416,0-8-3.584-8-8
		S385.708,232,390.124,232z M398.124,288h-16v-8c0-4.416,3.584-8,8-8c4.416,0,8,3.584,8,8V288z M254.124,160h-16v-8
		c0-4.416,3.584-8,8-8c4.416,0,8,3.584,8,8V160z M246.124,104c4.416,0,8,3.584,8,8s-3.584,8-8,8s-8-3.584-8-8
		S241.708,104,246.124,104z M110.124,288h-16v-8c0-4.416,3.584-8,8-8s8,3.584,8,8V288z M102.124,232c4.416,0,8,3.584,8,8
		s-3.584,8-8,8s-8-3.584-8-8S97.708,232,102.124,232z"/>
</g>
<g>
</g>
<g>
</g>
<g>
</g>
<g>
</g>
<g>
</g>
<g>
</g>
<g>
</g>
<g>
</g>
<g>
</g>
<g>
</g>
<g>
</g>
<g>
</g>
<g>
</g>
<g>
</g>
<g>
</g>
</svg>
